<?xml version="1.0" encoding="UTF-8"?>
<svg xmlns="http://www.w3.org/2000/svg" xmlns:xlink="http://www.w3.org/1999/xlink" width="600" height="600">
<defs>
  <radialGradient id="rg" gradientUnits="userSpaceOnUse" cx="220" cy="220" r="405">
    <stop style="stop-color:#fff;stop-opacity:.3" offset="0"/>
    <stop style="stop-color:#fff;stop-opacity:.2" offset=".2"/>
    <stop style="stop-color:#666;stop-opacity:.1" offset=".6"/>
    <stop style="stop-color:#000;stop-opacity:.13" offset="1"/>
    <path id="shield" d="m 1.5,1.5 h 597 v 597 h -597 z" />
  </radialGradient>
</defs>
<use id="field" xlink:href="#shield" style="fill:#ffffff" />
<g transform="translate(300,300)scale(0.85)translate(-220,-330)" style="stroke:#222222;stroke-width:3;stroke-linecap:round;stroke-linejoin:round;">
	<path style="fill:#444444;stroke-width:2;" d="m 356.9,562.2 c 6.5,-14.9 -0.8,-46.6 4,-77.4 23.2,12.2 24.1,-42 32,-59 34.2,-74.8 36.1,-117.2 -13.6,-85.6 -17,-94.3 -46.5,-106.6 -46.5,-106.6 l -122.8,-4.9 -122.81,4.9 c 0,0 -29.47,12.3 -46.48,106.6 -49.691,-31.6 -47.841,10.8 -13.56,85.6 7.89,17 8.75,71.2 31.93,59 4.81,30.8 -2.47,62.5 4.07,77.4 12.82,29.7 83.95,95.8 146.85,95.8 62.9,0 134,-66.1 146.9,-95.8 z" />
	<path style="fill:#666666;stroke-width:2;" d="m 319.5,98.7 c 47.8,26.6 79.6,94.1 85.4,120.3 l 1.8,197.2 c 0,0 -22.4,8.3 -28.3,19.7 -23.3,45.2 -3.9,152.3 -3.9,152.3 l -112.2,68.3 6.5,-153 c 0,0 15.5,-13.2 19.5,-20.8 10.8,-21.4 7.9,-69.3 7.9,-69.3 l 56.3,-17.4 2.3,-96.4 -125.4,52.6 c 0,0 0.3,23.8 4.2,40.9 3.2,14.3 15.9,50.8 15.9,50.8 -22.7,8.8 -39.5,35.2 -39.5,35.2 0,0 -16.8,-26.4 -39.5,-35.2 0,0 12.7,-36.5 15.9,-50.8 3.9,-17.1 4.2,-40.9 4.2,-40.9 l -125.35,-52.6 2.22,96.4 56.33,17.4 c 0,0 -2.9,47.9 7.9,69.3 4,7.6 19.5,20.8 19.5,20.8 l 6.5,153 -112.18,-68.3 c 0,0 19.36,-107.1 -3.95,-152.3 -5.92,-11.4 -28.23,-19.7 -28.23,-19.7 l 1.72,-197.2 c 5.8,-26.2 37.61,-93.7 85.44,-120.3 55.5,-30.83 71.3,-40.17 109.5,-95.337 38.2,55.167 54,64.507 109.5,95.337 z" />
	<path style="fill:none;" d="m 157.5,548.7 c 33.4,-4.4 24.4,3.2 52.5,3.2 28.1,0 19.1,-7.6 52.5,-3.2 m -79.5,-12 c -6.9,3.9 -15.7,12 -25.5,12 10,-7.6 19.1,-24.4 29.1,-27.6 12.7,-4 15,2.6 23.4,2.6 8.4,0 10.7,-6.6 23.4,-2.6 10,3.2 19.1,20 29.1,27.6 -9.8,0 -18.6,-8.1 -25.5,-12 -14.3,-8.3 -16.4,0.2 -27,0 -10.6,0.2 -12.7,-8.3 -27,0 z m 23.1,-55.8 c 0,11 -10.2,31.6 3.9,31.6 14.1,0 3.9,-20.6 3.9,-31.6 m 29.8,-114.5 c 12.3,-2.1 30.7,-18 41.3,-24.7 27.6,-17.6 37.8,-15.4 50.8,-14.9 m -87.3,53 c 20.8,-11.6 18.6,-19.8 40.7,-28.6 21.3,-8.5 30.4,1 43.5,12.5 m -102.4,103.3 c 14.3,17.3 28.4,37 31.9,59.9 m -15.9,82.1 c -6.6,-11.4 -22.2,-18.7 -36.3,-18.7 -14.1,0 -29.7,7.3 -36.3,18.7 m 2.6,-242.6 c -12.3,-2.1 -30.7,-18 -41.3,-24.7 -27.6,-17.6 -37.82,-15.4 -50.77,-14.9 m 87.27,53 c -20.8,-11.6 -18.6,-19.8 -40.7,-28.6 -21.3,-8.5 -30.4,1 -43.48,12.5 m 102.38,103.3 c -14.3,17.3 -28.4,37 -31.9,59.9" />
	<path style="fill:#ee0000;stroke:none;" d="m 110.3,289.9 c -9.5,9.9 2.8,21.6 -1.3,36.4 -4.1,-15 -8.6,-19.8 -12.44,-20.6 3.84,7.3 4.64,18.6 3.09,31.6 -2.22,-3.1 -5.68,-9.9 -9.5,-11 2.22,8.6 2.47,18.5 2.96,27.5 -1.48,-2.5 -4.31,-4.6 -6.78,-5.4 3.58,7.4 1.73,11.2 2.96,18.5 8.14,13.2 18.11,23.6 31.41,25 16.2,1.6 27.9,-11.7 50.8,-12.1 -7.9,-2.9 -12.8,-4.9 -12.9,-9.2 0.4,-2.7 -1.6,-7.5 -2.9,-11.7 0.2,4.9 -5.1,7.2 -7.1,6.9 2.5,-3.6 3.6,-6.3 4.2,-9.3 0.7,-11.1 -2.5,-19.5 -8.5,-27 0.2,5.4 -0.1,9.9 -2,10.9 -5.4,-16.1 -11.3,-27.4 -17.1,-30.6 1.7,4.8 3.4,10.7 -0.4,15.8 -5.1,-22.6 -14.4,-14.7 -14.5,-35.7 z" />
	<path style="fill:#ffbb00;stroke:none;" d="m 115.2,316.9 c -5.9,10.5 4.7,23.1 1.5,35.9 -7.6,-5.9 -6.7,-20.3 -12.9,-24.8 5,11 -1.7,16.2 6.1,32.7 -4.5,-3.1 -9.1,-9.6 -12.97,-18.6 0.25,14 9.67,22.7 9.27,28.8 -0.6,-1.3 -6.92,-9 -12.72,-7.8 6.52,6 3.95,9.2 5.67,15 0.37,1.2 0.85,2.5 1.45,3.4 5.8,5.7 12.4,9.7 20.1,10.4 13.3,1.4 18.2,-4.3 28.3,-8.4 l 13,-3.3 c -4.5,-2.7 -6.9,-4.3 -6,-7.5 0.6,-2.5 0.4,-4.8 -1,-6.9 -1.1,3.5 -2.2,3.2 -6.4,5.1 -4.2,2 -3.7,4.1 -4.2,4.9 0.4,-14.5 -3.9,-13.1 0.6,-25.8 -6.5,2.1 -5,11.6 -7.4,14 -0.3,-10.2 -1,-20.4 -9.7,-31.8 3.6,8.9 4.3,17.4 -1.3,23.3 -3.8,-23.3 -8.5,-17.6 -11.4,-38.6 z" />
	<path style="fill:none;" d="m 87.32,363.7 c 8.63,14.6 18.98,26.7 33.38,28.2 20.4,2.1 20.9,-12.3 50.8,-12.1" />
	<path style="fill:#ee0000;stroke:none;" d="m 309.7,289.9 c 9.5,9.9 -2.8,21.6 1.3,36.4 4.1,-15 8.6,-19.8 12.4,-20.6 -3.8,7.3 -4.6,18.6 -3,31.6 2.2,-3.1 5.6,-9.9 9.4,-11 -2.2,8.6 -2.4,18.5 -2.9,27.5 1.5,-2.5 4.3,-4.6 6.8,-5.4 -3.6,7.4 -1.8,11.2 -3,18.5 -8.1,13.2 -18.1,23.6 -31.4,25 -16.2,1.6 -27.9,-11.7 -50.8,-12.1 7.9,-2.9 12.8,-4.9 12.9,-9.2 -0.4,-2.7 1.6,-7.5 2.9,-11.7 -0.2,4.9 5.1,7.2 7.1,6.9 -2.5,-3.6 -3.6,-6.3 -4.2,-9.3 -0.7,-11.1 2.5,-19.5 8.5,-27 -0.2,5.4 0.1,9.9 2,10.9 5.4,-16.1 11.3,-27.4 17.1,-30.6 -1.7,4.8 -3.4,10.7 0.4,15.8 5.1,-22.6 14.4,-14.7 14.5,-35.7 z" />
	<path style="fill:#ffbb00;stroke:none;" d="m 304.8,316.9 c 5.9,10.5 -4.7,23.1 -1.5,35.9 7.6,-5.9 6.7,-20.3 12.9,-24.8 -5,11 1.7,16.2 -6.1,32.7 4.5,-3.1 9.1,-9.6 13,-18.6 -0.3,14 -9.7,22.7 -9.3,28.8 0.6,-1.3 6.9,-9 12.7,-7.8 -6.5,6 -3.9,9.2 -5.7,15 -0.3,1.2 -0.8,2.5 -1.4,3.4 -5.8,5.7 -12.4,9.7 -20.1,10.4 -13.3,1.4 -18.2,-4.3 -28.3,-8.4 l -13,-3.3 c 4.5,-2.7 6.9,-4.3 6,-7.5 -0.6,-2.5 -0.4,-4.8 1,-6.9 1.1,3.5 2.2,3.2 6.4,5.1 4.2,2 3.7,4.1 4.2,4.9 -0.4,-14.5 3.9,-13.1 -0.6,-25.8 6.5,2.1 5,11.6 7.4,14 0.3,-10.2 1,-20.4 9.7,-31.8 -3.6,8.9 -4.3,17.4 1.3,23.3 3.8,-23.3 8.5,-17.6 11.4,-38.6 z" />
	<path style="fill:none;" d="m 332.7,363.7 c -8.6,14.6 -19,26.7 -33.4,28.2 -20.4,2.1 -20.9,-12.3 -50.8,-12.1" />
	<path style="fill:none;" d="m 210,458.1 v -171.9 m 174.8,-61 c -34.4,8.1 -78.4,23.8 -159.6,56.1 m -190.04,-56.1 c 34.4,8.1 78.44,23.8 159.64,56.1" />
</g>
<use id="shine" xlink:href="#shield" fill="url(#rg)" stroke="#000" stroke-width="3" />
</svg>
