<?xml version="1.0" encoding="UTF-8" standalone="no"?>
<svg width="600" height="660" version="1.1" xmlns:xlink="http://www.w3.org/1999/xlink" xmlns="http://www.w3.org/2000/svg" xmlns:svg="http://www.w3.org/2000/svg">
  <path style="fill:#ffffff;stroke:#000000;stroke-width:3;stroke-miterlimit:20;" d="m 1.5,1.5 v 656 l 298.5,-157.5 298.5,157.5 v -656 z"/>
  <g id="goat" style="stroke:#ffffff;stroke-width:1;stroke-linejoin:round;stroke-linecap:round;">
    <path id="hoof-hind-left" style="fill:#555555;" d="m 478,488.6 c 0.5,-0.3 1.2,-0.5 2,-0.6 1.6,-0.2 3.6,0.3 5.2,1.3 1.9,1 3.9,1.7 4.4,1.5 0.6,-0.2 2.4,0.2 4,0.7 2.7,1 2.8,1.1 3.3,5.7 0.3,2.6 0.2,6.1 -0.2,7.5 -0.9,4 -7.4,5.6 -20.3,5.1 -1.9,-0.2 -4.2,0.2 -5.1,0.4 -1,0.4 -2.5,0.3 -3.3,-0.2 -2.2,-1.3 1,-10.8 5.2,-15.2 1.9,-2 3.6,-4.2 3.8,-4.8 0.1,-0.6 0.3,-1.1 0.9,-1.4 z"/>
    <path id="hoof-front-right" style="fill:#555555;" d="m 210.5,497.4 c -0.3,-0.8 -0.3,-2.6 -0.2,-5.4 -0.4,-9.9 2.7,-23.6 2.7,-23.6 l 6.7,-0.7 c 5.6,-1.3 8.9,-0.4 13.7,2 8.3,29.9 0.7,26.1 -15.3,32.5 -3.1,-9.6 1.7,-28.6 -1.7,-30 -1.3,9.9 0.6,27.6 -5.9,25.2 z"/>
    <path id="leg-front-right" style="fill:#111111;" d="m 212.8,468.7 c 0.8,0.6 5.5,-0.6 8.4,-1 5.3,-0.8 11.8,3 11.6,0.3 -1.5,-4 -6.6,-13.1 -8.7,-16.8 -0.9,-4.5 -2.6,-8 0,-11 4.6,-1.8 8.4,-1.7 8.9,-7.7 -0.3,-1.6 -1.6,-6.1 -2.9,-9.9 -1.8,-5.2 -2.1,-9 -1.6,-15.9 0.8,-12 3.8,-29.8 7,-41.2 10.4,-36.1 11.6,-32.9 10.1,-43.1 -11.7,8.4 -15.6,9 -29.6,14.5 3.9,5.4 8.4,27.4 8.7,40.1 -0.9,16.1 -4.4,31.6 -8.4,47.1 -1.9,2.5 -7.2,26.2 -6.2,27.6 1.4,4.6 0.5,12.8 2.7,17 z"/>
    <use id="horn-right" xlink:href="#horn-left" transform="matrix(0.8569,0.1999,-0.1957,0.8569,35.16,-4.774)"/>
    <path id="beard" style="fill:#111111;" d="m 98.63,212.2 c 9.97,8 10.27,24.3 4.87,31.2 -6.37,8.2 -18.37,24.1 -19.67,23.9 -2.1,-0.3 0.6,-18.8 7,-26.6 3.1,-3.8 -6.4,-9.8 -8.7,-14.4 -3.1,-6.1 -9.6,-5.3 -10.4,-7.1 -3.1,-6.6 17.5,-14.5 26.9,-7 z"/>
    <path id="tongue" style="fill:#cc0000;" d="m 23.26,260.2 c 11.16,-1.5 17.5,-9.9 22.97,-20.2 6.4,-12.2 19.1,-35.5 18.4,-36.2 -0.9,-1 -18.9,18.9 -24.97,30.7 -2.94,5.7 -7.06,12.8 -12.43,15.9 -7.21,4.1 -13.12,-8.3 -15.21,-7 -7.65,4.5 0.75,18.1 11.24,16.8 z"/>
    <path id="pizzle" style="fill:#111111;" d="m 390.3,286.4 c -8.1,-2.6 -31.6,12.9 -35.6,18 3.5,3.9 29.3,14.7 32.3,-7 1.1,-7.9 15.7,0.8 12,-3.3 -3.7,-4.1 -5.2,-6.6 -8.7,-7.7 z"/>
    <path id="body" style="fill:#111111;" d="m 137.6,93.27 c -1.8,0.45 -12.8,5.84 -23.6,11.43 -4.5,2.4 -11.3,5.4 -11.9,5.7 -3.57,1.6 -7.37,5.9 -7.87,8.1 -0.3,1.8 -0.8,3.5 -0.8,3.5 0,0 0.5,-4 1.9,-6.5 2.5,-4.8 11.97,-6.4 15.37,-9.7 1.6,-1.1 -1.6,-3.8 -3.8,-3.6 -5,0.5 -28.67,4.9 -31.97,5.6 -2.9,5.5 -0.3,8.8 -0.4,15.6 0,9 -2.5,10.9 -10,13.6 -5.7,3.4 -10.8,7.8 -12.3,10.1 -0.9,2.1 -0.8,4.6 -1,6.9 -0.3,3.3 -2.5,8.5 -10,24.4 -9.24,19.6 -7.94,22.6 -7.46,25.1 0.39,2 1.43,5 3.3,4.4 1.98,-0.7 3.54,-2.8 5.96,-4.6 2.8,-2 5.3,-4.4 1.9,-7.2 -2.9,-2.3 -6.68,-3 -3.7,-3.1 3.6,-0.2 7.4,4.4 5.8,8 -0.4,0.8 -3.3,3.4 -6.2,5.7 -7.45,5.9 -8.38,11.3 -2.59,14.1 3.39,1.7 5.69,1 9.19,-2.4 6.4,-6.2 9,-8.3 11.8,-9.2 1.7,-0.6 3.4,-0.8 3.8,-0.6 0.7,0.3 -5.1,14.1 -7.7,18.7 -0.5,0.8 -1,3.1 -1.1,5.2 -0.2,3.2 0.2,3.9 2.1,4.2 3.4,0.5 6.9,-1.5 9.1,-5.5 l 2.1,-3.5 c 11.7,-6.7 23.6,-16.3 31.9,-27.2 l 11.07,-4.3 c 14,-5.3 21.5,-4.1 26.6,-14.1 3.6,-5.7 3.2,-16.3 -1.8,-31.1 -3.3,-9.8 -6.5,-14 1.4,3.4 2.5,10.4 5.6,18.4 0.9,27.9 -5.6,11.1 -5.6,10.4 -2.4,17.7 1,2.4 1.3,2.4 3.2,1.8 3.2,-1.2 4.2,1.5 4.3,9.7 0,5.9 -0.7,11.7 -0.8,17.7 0,0 4.4,0.6 9.7,-4.4 1.4,5.8 -2.2,11.2 -2.8,17.1 2,7.6 6.3,-1.3 9,-4.6 1.3,3.7 -0.5,7.1 -0.6,10.6 -0.2,4.5 -0.8,10.9 1.1,11.8 1.6,-4.4 7.5,-10.5 10.3,-8.9 -1.2,7.2 -3.7,14 -4.2,21.2 1,0.4 3.5,-3.4 8.6,-13.1 4.4,0 -1.1,8.9 -2.9,13 -3.1,7.5 -4,10.4 -3.5,12 2,2.6 9.3,-10.2 11.3,-12.6 0.4,1.2 -4.7,16.1 -5.6,17.9 -0.9,2 0.7,2.9 3.7,2 3.5,-3.7 7.7,-16.4 10.7,-13.8 0.9,9.3 -8.1,16.7 -4.2,25.7 l 13,-8.8 53.1,35.8 c 1.3,1 5.2,0.9 9.7,0 23,-5.8 45.3,-18.3 70.7,-18.4 9.2,0.9 15.9,-2.7 23.3,-7.2 7.9,-5.1 15.6,-10 24.1,-13.9 4.5,-0.6 8.6,-3.3 12.4,0.8 14.6,7.2 19.8,9.9 34.9,19.9 8.4,5.6 16.2,10.6 22.3,14.1 2.5,3.1 5.9,6.7 9.1,9.7 3.3,3.1 11.8,7.4 18.1,9.4 0.9,1.2 2,2.4 3.1,3.7 4.6,5.8 7.9,9.6 11.2,12.7 0,0 0,0 0,0 0.7,1 1.4,2 2.1,2.9 3.6,4.4 3.9,5.6 6.4,15.4 3.2,12.4 5.6,30.1 5.3,39.2 -0.7,17.4 -1.1,21.1 -3.4,31.5 -0.7,3.6 -2,7 -2.6,7.6 -4.1,3.6 -8.4,11.5 -9,16.4 -1,4.2 -10,10.9 -7.8,14.7 3.2,1 13.8,4.1 17.3,3.9 1.2,-5.2 1,-14.2 4.8,-18.3 2.5,-4.7 4.6,-9.7 5.7,-14.9 2.6,3.7 4.3,8.3 9.3,6.6 3,-2.1 3,-6.1 0,-20 -2.5,-10.6 -4.9,-20.4 -6.6,-31 -1.3,-14.2 -2.1,-28.4 -1,-42.6 0.5,-5.6 0.5,-10.4 0.2,-10.5 2.3,-2.8 3.6,-4.4 4.2,-5.6 9.1,-8.9 8.9,-12.9 -0.2,-54.8 0,-1.2 -0.3,-3.7 -0.9,-5.5 -1.9,-27.3 8.8,-44.2 -8.4,-71.7 -1.4,-2.6 -5.2,-8.1 -8.3,-12.1 -23.7,-14.8 -33,-25.5 -54.8,-26.5 -9.8,-1.1 -19.2,1.6 -28.5,4.2 -18.2,4.1 -36.8,7.5 -55.7,8.5 -15.8,0.8 -23.1,-0.5 -42.2,-7.1 -5.4,-1.9 -17.5,-5.3 -26.8,-7.7 -35.6,-9.5 -40,-10.7 -54.8,-16.4 -5.6,-2.1 -11,-3.9 -12,-4 -5.6,3.7 -7.3,4 -11.2,-0.8 5.3,-0.5 9.3,-2.5 13.5,-5.7 0.7,-1.4 0.3,-1.7 -1.8,-2.3 -8,-2 -25.9,-8.2 -26.2,-9 -0.2,-0.5 2.2,-1.6 5,-2.4 5.7,-1.5 7,-3.8 1.7,-2.9 -1.8,0.4 -7,-0.4 -12.4,-2 -11.6,-3.4 -11.7,-3.6 -9.5,-4.7 3.4,-1.5 2.4,-3.8 -2.5,-5.5 -20.4,-7 -47.2,-12.5 -50.2,-11.1 l 6.5,-15.6 c 4.3,-1.95 5.7,-7.71 5.1,-7.98 0,0 -0.2,0 -0.3,0 z"/>
    <path id="horn-left" style="fill:#cc0000;" d="m 75.23,107.6 c -7,-13.97 1.8,-26.17 6.3,-28.45 4.4,-2.27 9,-4.17 15,-5.25 -6,1.08 -10.6,2.98 -15,5.25 1.4,-10.66 7.1,-15.04 12.8,-16.88 4.3,-1.37 8.67,-2.37 13.47,-1.34 -4.8,-1.03 -9.17,0 -13.47,1.34 1.6,-6.46 10.67,-11.53 16.77,-12.61 6,-1.09 8.7,0.18 12.2,2.04 -3.5,-1.86 -6.2,-3.13 -12.2,-2.04 5,-5.89 14.9,-8.19 18.5,-8.5 3.7,-0.32 7.1,0.26 10.5,3.02 -3.4,-2.76 -6.8,-3.34 -10.5,-3.02 5.5,-4.76 16,-6.84 20.3,-5.66 4.3,1.18 7.8,4.31 9.7,7.53 -1.9,-3.22 -5.4,-6.35 -9.7,-7.53 7.3,-1.91 19.6,-4.38 22.9,-1.62 3.4,2.75 5.5,6.35 7.4,9.57 -1.9,-3.22 -4,-6.82 -7.4,-9.57 8.9,-2 20.4,-0.31 21.1,1.06 2,3.6 2.7,5.1 4,9.37 -1.3,-4.27 -2,-5.77 -4,-9.37 6.2,-0.7 18.3,1.62 19.4,3.39 2.8,4.66 2.3,5.39 0,8.7 2.3,-3.31 3.1,-4.14 0,-8.7 6.9,1.17 12.1,3.75 12.2,5.52 0,1.92 0.5,3.4 -1.4,6.56 1.9,-3.16 1.6,-3.64 1.4,-6.56 6.4,2.15 12.8,4.6 12.6,7.05 -0.1,1.81 -5.2,5.73 -3.3,4.11 2.6,-2.13 2.2,-1.67 3.3,-4.11 3.6,2.11 18.4,8.73 16.9,10.71 -1.4,1.8 -7.1,-0.55 -11.7,-1.95 -45.6,-14.22 -121.1,-30.24 -134.6,41.44 -13.07,8.8 -24.17,10.7 -33.47,6.5 z"/>
    <path id="ear" style="fill:#555555;" d="m 105.5,123.4 c 3,-3 10.5,-8.8 12.5,-10.5 6.5,-5.6 19.6,-17.96 19.6,-17.96 0,0 0.9,4.32 -7.4,19.06 -0.8,1.5 -0.3,7.8 -11.3,15.9 -3.3,2.4 -25.57,0.2 -13.4,-6.5 z"/>
    <path id="eye" style="fill:#111111;" d="m 63.83,165.6 c 6.1,-5.2 11.6,-3.5 17.7,-9.4 5.4,-5.1 4.2,-11.9 9.9,-19.6 -10.5,10.7 -16,3.6 -22,9.1 -6.7,6.1 -0.3,12.9 -5.6,19.9 z"/>
    <path id="sclera" style="fill:#ffffff;stroke:none;stroke-width:1" d="m 72.53,160.1 c -3.4,1 -6.4,0 -4.9,-5.4 1.2,2.6 2.7,4.3 4.9,5.4 z m 0.6,-14.4 c 11.8,-5.5 16.2,3.1 5.6,11.3 1.6,-7 0,-9.5 -5.6,-11.3 z"/>
    <path id="hoof-hind-right" style="fill:#555555;" d="m 423.6,481.8 c 0.5,-0.3 1.3,-0.3 2.1,-0.2 1.6,0.2 3.5,0.9 4.9,2.2 1.6,1.3 3.5,2.4 4.1,2.3 0.6,-0.2 2.3,0.5 3.7,1.4 2.5,1.4 2.6,1.6 2.3,6.2 -0.2,2.6 -0.9,6 -1.4,7.4 -1.7,3.7 -8.4,4.1 -20.9,1.2 -1.9,-0.4 -4.2,-0.6 -5.2,-0.4 -0.9,0.1 -2.4,-0.2 -3.1,-0.8 -2,-1.8 2.9,-10.5 7.8,-14.1 2.2,-1.6 4.3,-3.5 4.5,-4 0.2,-0.5 0.6,-1 1.2,-1.2 z"/>
    <path id="left-hind-right" style="fill:#111111;" d="m 482.3,353.5 c -0.9,3.5 0.6,3.3 -6.5,9.3 0.3,0.2 -0.6,4.7 -2.1,10.2 -3.6,13.8 -5.3,28 -6.6,42.2 -0.2,10.7 0.5,20.7 1,31.6 0.6,14.2 -0.2,18.2 -3.5,19.7 -5.1,0.8 -6,-4.1 -7.9,-8.2 -2.1,4.9 -4.9,9.4 -8.2,13.6 -4.5,3.3 -6.4,12 -8.5,16.9 -3.5,-0.4 -12.1,-5.3 -15.1,-6.9 -1.4,-4.1 7.8,-8.9 9.5,-12.9 1.4,-4.7 7.1,-11.7 11.7,-14.5 0.8,-0.4 2.7,-3.5 4,-6.9 4.1,-9.8 5.2,-13.4 8.9,-30.4 2,-8.9 2.7,-26.8 1.8,-39.6 -0.7,-10.1 -0.9,-11.3 -3.6,-16.3 -2,-3.5 -3.4,-7.9 -4.2,-12.5 -1,-5.8 -1.6,-7 -3.1,-7.2 -4.6,-0.7 -17.9,-9.8 -21.6,-14.8 -4.7,-6.4 -9.6,-15 -10.1,-17.8 21.5,12 49.8,24.5 64.1,44.5 z"/>
    <path id="hoof-front-left" style="fill:#555555;" d="m 118.5,451.3 c 0.7,-1.2 12,-4.3 13.4,-3.7 2,0.8 11.9,9 14.4,12 1.4,1.6 2.4,3.9 2.4,5.2 0,2.8 -1.1,7.2 -4.9,8.4 -6.4,2 -8.1,1.9 -10.3,-2.5 -3.2,-5.6 -7.9,-14.2 -9.6,-13.8 2.5,5.5 11.9,17.3 8.8,18.7 -0.5,0.9 -6.5,-4.8 -7.6,-7.1 -0.4,-0.7 -1.1,-2 -1.7,-2.9 -1.7,-2.8 -6.4,-13.7 -4.9,-14.3 z"/>
    <path id="leg-front-left" style="fill:#111111;" d="m 243.7,272 -13.5,6.5 c -1.5,2.8 -29,4.5 -48.1,19.3 -1.6,1.4 -4,2.9 -5.2,3.3 -17.5,9.1 -38.7,12.8 -53.9,27 0,0 -3.1,1.9 -4.3,7.3 -1.2,5.3 -0.4,14 -0.4,14 0.9,19.6 1.1,37.6 -1.3,56.7 -0.3,0.3 -2.6,15.9 -2.5,17.2 -0.5,2.3 -0.5,2.6 -1,4 -2.2,4.1 -2.1,7.7 0.2,11.4 1.2,1.9 2.9,5.7 3.8,8.3 0.9,2.6 2.2,4.6 2.7,4.4 0.6,-0.1 2.6,0 4.7,0.2 5,0.7 7.8,-2 5.4,-5.3 -0.8,-1.2 -2.6,-4.2 -4,-6.7 -1.5,-2.4 -3.1,-4.7 -3.2,-7.4 -0.2,-2.6 1.3,-3.5 3.7,-2.2 2.9,1.6 6.2,0.3 6.9,-2.5 0.4,-1.7 -2.4,-10.2 -3.8,-11.5 -1.4,-1.2 -4.6,-17 -4.7,-23.1 -0.3,-12.8 -0.3,-17.9 0.2,-18.5 2.9,-17.6 16.2,-37.8 35.6,-38 0.8,0.8 11.7,2.6 23,3.6 2.2,0.3 8,0.3 13,0 5.1,-0.1 11.2,-0.3 13.5,-0.3 2.3,0 5.1,-0.5 6.2,-1 5.6,-2.1 11.1,-4.4 16.5,-7 3.9,-1.9 6.5,-3 8.4,-3.8 l 12.7,-11.3"/>
    <path id="tail" style="fill:#111111;" d="m 502.5,231.3 c 13.9,7 25.9,15 39.4,23.1 2.1,1.9 5.3,3.1 7,2.8 4.5,-0.8 4.4,-6 -0.5,-10.1 -3.1,-2.7 -3.4,-3.4 -1.5,-4.5 2.1,-1.1 3.5,-0.3 9.6,6.1 5,5.2 8,7.4 9.4,6.9 3.3,-1.1 1.3,-5 -5.3,-10.7 -5,-4.3 -5.8,-5.5 -4,-6.5 15,8.1 16.5,18.3 22,34.3 2,1.8 7.8,-6.8 10.6,-15 0.3,-1.1 0.6,-2.3 0.9,-3.4 1.5,-7.2 1.1,-8.8 -2.9,-13.6 -6.3,-7.2 -14.9,-12.4 -24.1,-14 -4.2,-0.7 -8.8,-1.5 -10.2,-1.9 -1.4,-0.3 -5.9,-0.8 -9.9,-0.9 -4,-0.2 -7.7,-0.5 -8.1,-0.8 -0.4,-0.3 -4,-0.5 -8.1,-0.2 -12.5,0.7 -28.8,-8.6 -38.9,-15.4 -3.7,-5 -15.8,-8.5 -23,-14.9"/>
  </g>
</svg>
