<?xml version="1.0" encoding="UTF-8" standalone="no"?>
<svg width="600" height="660" version="1.1" xmlns:xlink="http://www.w3.org/1999/xlink" xmlns="http://www.w3.org/2000/svg" xmlns:svg="http://www.w3.org/2000/svg">
  <path style="fill:#000000;stroke:none;" d="m 364.9,522.9 -23.7,-12.7 -4.7,8.8 23.7,12.7 z m 47.4,25.4 -23.7,-12.7 -4.7,8.8 23.7,12.7 z m 47.4,25.3 -23.7,-12.7 -4.7,8.8 23.7,12.7 z m 47.4,25.3 -23.7,-12.6 -4.7,8.8 23.6,12.7 z m 47.4,25.4 -23.7,-12.7 -4.8,8.8 23.7,12.7 z m 35.5,-53 v 28.8 h 10 v -28.8 z m 0,-57.5 v 28.8 h 10 v -28.8 z m 0,-57.6 v 28.8 h 10 v -28.8 z m 0,-57.6 v 28.8 h 10 v -28.8 z m 0,-57.6 v 28.8 h 10 v -28.8 z m 0,-57.5 v 28.8 h 10 v -28.8 z m 0,-57.6 v 28.8 h 10 v -28.8 z m 0,-57.6 v 28.8 h 10 v -28.8 z m 0,-57.5 v 28.7 h 10 v -28.7 z m 0,-57.62 v 28.79 h 10 v -28.79 z m 0,575.72 v 14.4 l -11.8,-6.3 -4.8,8.8 26.6,14.2 v -31.1 z m -354.9,-106 23.7,-12.7 4.7,8.8 -23.7,12.7 z m -47.4,25.4 23.7,-12.7 4.7,8.8 -23.7,12.7 z m -47.4,25.3 23.7,-12.7 4.7,8.8 -23.7,12.7 z m -47.37,25.3 23.67,-12.6 4.7,8.8 -23.65,12.7 z m -47.39,25.4 23.7,-12.7 4.72,8.8 -23.7,12.7 z m -35.54,-53 v 28.8 h -10.000001367 l 7e-8,-28.8 z m 0,-57.5 v 28.8 h -10.000001843 l 4.171e-6,-28.8 z m 0,-57.6 v 28.8 h -10.000001704 l 4.171e-6,-28.8 z m 0,-57.6 v 28.8 h -10.000001565 l 4.171e-6,-28.8 z m 0,-57.6 v 28.8 h -10.000002041 l 4.17e-6,-28.8 z m 0,-57.5 v 28.8 h -10.000001902 l 4.17e-6,-28.8 z m 0,-57.6 v 28.8 h -9.999997662 l 6.9e-8,-28.8 z m 0,-57.6 v 28.8 h -9.999998713 l -1.1195e-6,-28.8 z m 0,-57.5 v 28.7 h -10.0000006448 l 7.667e-7,-28.7 z m 0,-57.62 v 28.79 h -9.99999993167 l -1.1511e-7,-28.79 z m 507.5,-53.18 h 29 v 10 h -29 z m -58,0 h 29 v 10 h -29 z m -58,0 h 29 v 10 h -29 z m -58,0 h 29 v 10 h -29 z m -58,0 h 29 v 10 h -29 z m -58,0 h 29 v 10 h -29 z m -58,0 h 29 v 10 h -29 z m -58,0 h 29 v 10 h -29 z m -58,0 h 29 v 10 h -29 z m 522,0 v 10 h 14.5 v 14.39 h 10 v -24.39 z m -275.5,488.2 -17.5,9.4 4.7,8.8 12.8,-6.9 v 0 0 l 12.8,6.9 4.7,-8.8 z m -300.000001857,140.7 5.442e-6,31.1 26.559996415,-14.2 -4.71,-8.8 -11.85,6.3 v -14.4 z m 1.857e-6,-628.9 2.8e-7,24.39 h 9.99999972 v -14.39 h 14.5 v -10 z"/>
</svg>
