<?xml version="1.0" encoding="UTF-8" standalone="no"?>
<svg width="600" height="600" version="1.1" id="svg129" xmlns:xlink="http://www.w3.org/1999/xlink" xmlns="http://www.w3.org/2000/svg" xmlns:svg="http://www.w3.org/2000/svg">
  <defs>
    <radialGradient id="rg" gradientUnits="userSpaceOnUse" cx="220" cy="220" r="405">
      <stop style="stop-color:#fff;stop-opacity:.3" offset="0"/>
      <stop style="stop-color:#fff;stop-opacity:.2" offset=".2"/>
      <stop style="stop-color:#666;stop-opacity:.1" offset=".6"/>
      <stop style="stop-color:#000;stop-opacity:.13" offset="1"/>
    </radialGradient>
    <clipPath id="shield-clip">
      <path id="shield" d="m 1.5,1.5 h 597 v 597 h -597 z" />
    </clipPath>
  </defs>
  <use id="field" xlink:href="#shield" style="fill:#ffffff" />
  <rect style="fill:#ffccaa;stroke:#552200;stroke-width:1;" width="450" height="450" x="75" y="75" />
  <path id="maze" style="fill:#552200;stroke:none;stroke-width:1.45162" d="m 307.2,517.8 v -7.4 h 29.1 29 v -36.2 -36.2 h -7.3 -7.2 v 14.4 14.5 h -14.5 -14.5 v 7.3 7.2 h 14.5 14.5 v 7.3 7.3 h -21.8 -21.8 v -14.6 -14.5 h -29 -29 v -7.2 -7.3 h 43.6 43.5 v -36.2 -36.4 h -29.1 -29 v -29 -29 h -21.8 -21.7 v 21.8 21.7 h 7.3 7.2 v -14.5 -14.5 h 7.2 7.3 v 21.7 21.8 h -43.5 -43.6 v 36.4 36.2 h 14.6 14.4 v 7.3 7.2 h -21.8 -21.8 v -50.7 -50.9 h 29.2 29 v -29 -29.1 h 36.2 36.4 v 29.1 29 h 21.8 21.7 v -14.5 -14.5 h 7.3 7.2 v 14.5 14.5 h 29 29 v 7.3 7.2 h -29 -29 v 21.8 21.8 h 14.5 14.5 v 14.6 14.4 h 21.8 21.8 v -14.4 -14.6 h 7.2 7.4 v 21.8 21.7 h -29.2 -29 v 21.8 21.7 h 65.4 65.2 v -65.2 -65.4 h -7.2 -7.2 v 58.2 58 h -7.3 -7.3 v -65.4 -65.3 h 14.6 14.4 v -108.9 -108.9 h -36.2 -36.2 v 14.5 14.6 h -21.8 -21.8 v -36.3 -36.3 h 7.2 7.2 v 29 29 h 7.4 7.2 v -14.5 -14.5 h 29 29 v -14.5 -14.5 h 7.3 7.3 v 14.5 14.5 h 7.2 7.2 v -21.7 -21.78 h -36.2 -36.2 v 7.26 7.22 h 14.4 14.5 v 7.3 7.2 h -21.7 -21.8 v -14.5 -14.48 h -14.6 -14.4 v -7.26 -7.26 h 65.3 65.3 v 225 225 h -108.8 -109 z m -232.2,-217.8 v -225 h 152.4 152.4 v 7.25 7.27 h -58 -58.1 v 43.48 43.6 h -36.3 -36.2 v -29.1 -29 h -29.2 -29 v -7.2 -7.3 h 36.4 36.2 v 29 29 h 21.8 21.8 v -36.2 -36.28 h -7.2 -7.3 v 28.98 29 h -7.3 -7.2 v -29 -28.98 h -65.4 -65.28 v 21.78 21.8 h 7.26 7.22 v -14.6 -14.5 h 7.3 7.2 v 14.5 14.6 h 29 29.1 v 28.9 29.2 h 50.8 50.8 v -14.6 -14.6 h 14.6 14.4 v -14.5 -14.4 h 29.1 29 v -7.3 -7.3 h -36.3 -36.2 v 14.6 14.4 h -7.4 -7.2 v -21.7 -21.8 h 50.8 50.8 v 58 58.2 h 29 29.2 v 14.5 14.5 h 21.7 21.7 v -36.2 -36.4 h -7.2 -7.3 v 29 29.1 h -7.2 -7.3 v -14.5 -14.6 h -29 -29 v -7.2 -7.2 h 29 29 v -14.6 -14.6 h 21.8 21.8 v 51 50.7 h -29.1 -28.9 v 21.7 21.8 h 14.4 14.5 v 7.4 7.2 h -21.7 -21.8 v -43.6 -43.5 h -36.4 -36.2 v 21.7 21.8 h 14.5 14.5 v 7.2 7.4 h -21.7 -21.8 v -36.4 -36.2 h 14.5 14.5 v -36.4 -36.3 h -21.7 -21.8 v 14.5 14.6 h -14.6 -14.4 v 14.6 14.4 h -14.6 -14.5 v 21.8 21.8 h 14.5 14.6 v 7.2 7.3 h -36.4 -36.2 v -7.3 -7.2 h 14.5 14.5 v -21.8 -21.8 h -58 -58.1 v -7.2 -7.2 h 14.4 14.5 v -21.8 -21.9 h -36.2 -36.28 v 65.5 65.2 h 28.98 29 v 29 29.1 h 7.3 7.2 v -36.3 -36.3 h -28.9 -29.1 v -50.7 -51 h 21.8 21.7 v 7.4 7.2 h -14.4 -14.6 v 21.8 21.8 h 58.1 58.1 v 7.2 7.3 h -14.5 -14.6 v 21.7 21.8 h 50.8 50.8 v -21.8 -21.7 h -14.4 -14.6 v -7.3 -7.2 h 14.6 14.4 v -14.6 -14.4 h 14.6 14.5 v -14.6 -14.6 h 7.3 7.2 v 21.8 21.8 h -14.5 -14.5 v 50.8 50.8 h 36.3 36.3 v -21.8 -21.7 h -14.6 -14.5 v -7.3 -7.2 h 21.7 21.8 v 43.6 43.5 h 36.4 36.2 v -21.7 -21.8 h -14.4 -14.6 v -7.4 -7.2 h 21.8 21.8 v 36.4 36.2 h -14.6 -14.4 v 72.6 72.6 h -36.4 -36.2 v -7.3 -7.3 h 29 29 v -36.2 -36.4 h -21.8 -21.8 v 14.6 14.6 h -7.2 -7.2 v -14.6 -14.6 h -14.6 -14.5 v -7.2 -7.2 h 29.1 29 v -14.6 -14.5 h 7.2 7.4 v 14.5 14.6 h 7.2 7.2 v -21.8 -21.8 h -43.6 -43.5 v -7.2 -7.3 h 14.5 14.6 v -7.3 -7.2 h -36.3 -36.3 v 14.5 14.5 h -7.2 -7.4 v -29 -29 h -50.8 -50.8 v 29 29 h -7.2 -7.2 v -58 -58.1 h -36.4 -36.3 v 7.2 7.3 h 29 29.1 v 50.8 50.8 h -14.6 -14.5 v 65.4 65.2 h 36.3 36.4 v -21.7 -21.7 h -14.6 -14.4 v -21.8 -21.8 h 65.2 65.4 v 21.8 21.8 h -36.4 -36.2 v -7.4 -7.2 h 29 29 v -7.2 -7.4 h -50.8 -50.8 v 7.4 7.2 h 14.6 14.5 v 29 29 h 29 29.1 v 7.3 7.3 h -79.8 -79.9 v -29.1 -28.9 h -14.6 -14.5 v -7.4 -7.2 h 14.5 14.6 v -36.4 -36.2 h -14.6 -14.5 v -21.8 -21.8 h 7.3 7.2 v 14.6 14.5 h 7.3 7.3 v -21.7 -21.8 h -21.8 -21.78 v 50.8 50.8 h 7.26 7.22 v -14.6 -14.5 h 7.3 7.2 v 21.7 21.8 h -14.5 -14.48 v 50.9 50.7 h 7.26 7.22 v -29 -29 h 7.3 7.2 v 29 29 h 87.1 87.2 v 7.4 7.2 h -109 -108.8 z" />
  <use id="shine" xlink:href="#shield" style="fill:url(#rg);stroke:#000000;stroke-width:3;" />
</svg>
