<?xml version="1.0" encoding="UTF-8"?>
<svg xmlns="http://www.w3.org/2000/svg" xmlns:xlink="http://www.w3.org/1999/xlink" width="600" height="600">
  <defs>
    <radialGradient id="rg" gradientUnits="userSpaceOnUse" cx="220" cy="220" r="405">
      <stop style="stop-color:#fff;stop-opacity:.3" offset="0"/>
      <stop style="stop-color:#fff;stop-opacity:.2" offset=".2"/>
      <stop style="stop-color:#666;stop-opacity:.1" offset=".6"/>
      <stop style="stop-color:#000;stop-opacity:.13" offset="1"/>
    </radialGradient>
    <path id="shield" d="m 1.5,1.5 h 597 v 597 h -597 z" />
  </defs>
  <use id="field" xlink:href="#shield" style="fill:#ffffff" />
  <g id="myrish_eye" style="stroke-width:1;stroke-linejoin:round;stroke-linecap:round;">
    <g id="legs" style="fill:#966f33;stroke:#4d391a;">
      <path d="M 264.7 598.5 L 274.7 598.5 L 305 365.6 A 5 5 0 0 0 300.7 360 A 5 5 0 0 0 295.1 364.3 L 264.7 598.5 z " />
      <path d="m 345,370 c 0,5.5 -20.1,10 -45,10 -24.9,0 -45,-4.5 -45,-10 v -10 h 90 z" />
      <path d="M 151.7 598.5 L 163 598.5 L 277.5 375.3 A 5 5 0 0 0 275.3 368.6 A 5 5 0 0 0 268.6 370.7 L 151.7 598.5 z " />
      <path d="M 437.1 598.5 L 448.3 598.5 L 331.5 370.7 A 5 5 0 0 0 324.8 368.6 A 5 5 0 0 0 322.6 375.3 L 437.1 598.5 z " />
      <path d="m 345,360 c 0,5.5 -20.1,10 -45,10 -24.9,0 -45,-4.5 -45,-10 0,-5.5 20.1,-10 45,-10 24.9,0 45,4.5 45,10 z" />
      <path d="m 295,226 v 134 c 0,0.8 2.2,1.5 5,1.5 2.8,0 5,-0.7 5,-1.5 v -134 z" />
    </g>
    <g id="small">
      <path style="fill:#966f33;stroke:#4d391a;" d="m 404.9,235.1 -16.8,45.3 169.9,63 a 12.08,24.16 20.35 0 0 19.7,-18.5 12.08,24.16 20.35 0 0 -2.9,-26.8 z" />
      <path style="fill:#ffdd00;stroke:#b39b00;" d="m 571,296.7 c 6.3,2.3 7.6,14.3 3,26.8 -4.7,12.6 -13.5,20.8 -19.8,18.5 l 7.6,2.8 c 6.3,2.3 15.1,-5.9 19.7,-18.5 4.7,-12.5 3.4,-24.5 -2.9,-26.8 z" />
    </g>
    <g id="medium">
      <path style="fill:#966f33;stroke:#4d391a;" d="m 234.1,163.1 -22.5,60.4 169.9,63 a 16.11,32.21 20.35 0 0 26.3,-24.6 16.11,32.21 20.35 0 0 -3.9,-35.8 z" />
      <path style="fill:#ffdd00;stroke:#b39b00;" d="m 400.2,224.7 c 8.3,3.1 10.1,19.1 3.9,35.8 -6.2,16.7 -18,27.7 -26.3,24.6 l 7.5,2.8 c 8.3,3.1 20.1,-7.9 26.3,-24.6 6.2,-16.7 4.4,-32.7 -3.9,-35.8 z" />
      <path style="fill:#ffdd00;stroke:#b39b00;" d="m 292.5,227.3 a 30,30 0 0 0 -21.6,36.6 30,30 0 0 0 36.6,21.6 30,30 0 0 0 21.6,-36.6 30,30 0 0 0 -36.6,-21.6 z m 3.7,4.4 a 25,25 0 0 1 27.3,16.1 l -21.7,5.6 z m -4.8,1.3 5.6,21.6 -21.6,5.6 a 25,25 0 0 1 16,-27.2 z m -14.8,32 21.6,-5.6 5.6,21.6 a 25,25 0 0 1 -27.2,-16 z m 26.4,-6.8 21.6,-5.6 a 25,25 0 0 1 -16,27.2 z" />
    </g>
    <g id="large">
      <path style="fill:#966f33;stroke:#4d391a;" d="m 82.05,98.17 c 10.42,3.83 12.61,23.93 4.88,44.73 -7.73,20.9 -22.46,34.6 -32.88,30.8 l 151.05,56 a 20.13,40.27 20.35 0 0 32.9,-30.8 20.13,40.27 20.35 0 0 -4.9,-44.7 z" />
      <path style="fill:#ffdd00;stroke:#b39b00;" d="m 229.3,152.8 c 10.4,3.8 12.6,23.9 4.9,44.7 -7.8,20.9 -22.5,34.6 -32.9,30.8 l 7.6,2.8 c 10.4,3.8 25.1,-9.9 32.8,-30.8 7.8,-20.8 5.6,-40.9 -4.8,-44.7 z" />
      <path style="fill:#966f33;stroke:none;" d="m 64.28,134.5 a 16.11,36.24 20.35 0 1 -27.7,28.4 16.11,36.24 20.35 0 1 -2.51,-39.6 16.11,36.24 20.35 0 1 27.71,-28.35 16.11,36.24 20.35 0 1 2.5,39.55 z" />
      <ellipse id="lens" style="fill:#93eef5;stroke:#12b8c5;" cx="105.4" cy="103.8" rx="28.19" ry="38.66" transform="rotate(20.35)" />
      <path style="fill:#ffdd00;stroke:#b39b00;" d="m 63.18,91.17 c -10.43,-3.87 -25.15,9.93 -32.88,30.73 -7.73,20.9 -5.55,40.9 4.88,44.8 l 18.87,7 c 10.42,3.8 25.15,-9.9 32.88,-30.8 7.73,-20.8 5.54,-40.9 -4.88,-44.73 z m -1.4,3.78 a 16.11,36.24 20.35 0 1 2.5,39.55 16.11,36.24 20.35 0 1 -27.7,28.4 16.11,36.24 20.35 0 1 -2.51,-39.6 16.11,36.24 20.35 0 1 27.71,-28.35 z" />
      <path style="fill:#ffdd00;stroke:#b39b00;" d="m 63.18,91.17 c 10.42,3.87 12.6,23.93 4.87,44.73 -7.72,20.9 -22.45,34.6 -32.87,30.8 12.58,4.6 25.14,9.3 37.75,14 10.42,3.8 25.15,-9.9 32.87,-30.8 7.7,-20.8 5.6,-40.9 -4.9,-44.7 -12.58,-4.7 -25.14,-9.36 -37.72,-14.03 z" />
    </g>
  </g>
  <use id="shine" xlink:href="#shield" fill="url(#rg)" stroke="#000" stroke-width="3" />
</svg>
