<?xml version="1.0" encoding="UTF-8"?>
<svg xmlns="http://www.w3.org/2000/svg" xmlns:xlink="http://www.w3.org/1999/xlink" width="600" height="600">
<defs>
  <radialGradient id="rg" gradientUnits="userSpaceOnUse" cx="220" cy="220" r="405">
    <stop style="stop-color:#fff;stop-opacity:.3" offset="0"/>
    <stop style="stop-color:#fff;stop-opacity:.2" offset=".2"/>
    <stop style="stop-color:#666;stop-opacity:.1" offset=".6"/>
    <stop style="stop-color:#000;stop-opacity:.13" offset="1"/>
    <path id="shield" d="m 1.5,1.5 h 597 v 597 h -597 z" />
  </radialGradient>
</defs>
<use id="field" xlink:href="#shield" style="fill:#ffffff" />
<g id="bell" transform="translate(0,155)" style="fill:#cd9f32;stroke:#72581c;stroke-width:1;stroke-linecap:round;stroke-linejoin:round;">
  <path style="fill:#9e7b26;" d="m 429.4,402.5 c -0.1,14.3 -58,25.9 -129.4,25.9 -71.4,0 -129.3,-11.6 -129.4,-25.9 0.1,-14.3 58,-25.9 129.4,-25.9 71.4,0 129.3,11.6 129.4,25.9 z"/>
  <g>
    <path d="m 305.5,328 c 1.9,0 3.2,1.3 3.2,2.9 l 0.2,58.1 c 7.1,3.1 12.1,8 12.1,16.4 0,8.5 -5,12.1 -12.3,15.4 v 11.2 h -8.7 -8.7 v -11.2 c -7.3,-3.3 -12.3,-6.9 -12.3,-15.4 0,-8.4 5,-13.3 12.1,-16.4 l 0.2,-58.1 c 0,-1.6 1.3,-2.9 3.2,-2.9 h 5.5 z"/>
    <path d="m 308.7,420.8 c -2.3,-1.3 -5.9,-1.6 -8.7,-1.6 -2.8,0 -6.4,0.3 -8.7,1.6 m 17.6,-31.8 c -3.7,-1.2 -5.6,-1.5 -8.9,-1.5 -3.3,0 -5.2,0.3 -8.9,1.5"/>
    <path d="m 308.7,432 c 0,-2.2 -3.7,-4 -8.7,-4 -5,0 -8.7,1.8 -8.7,4 0,2.2 3.7,4 8.7,4 5,0 8.7,-1.8 8.7,-4 z"/>
  </g>
  <path d="m 299.9,376.6 c -66,0 -120.5,9.9 -128.2,21.5 3.5,-10.3 8.8,-17.9 14.5,-25.4 l 6.1,-6.9 c 2.4,-6.8 11.5,-11.6 14,-15.4 5.4,-10.8 7.7,-22.6 9.8,-34.1 3.5,-18.6 3.6,-41.1 4,-61.8 0.1,-5.2 0.2,-9 0.3,-14.1 0.3,-11.6 0.7,-22.1 1.9,-33 0.5,-5 -0.2,-2.2 1.4,-4.7 7.5,-9.4 13.4,-15.1 19,-19.9 1.1,-4.7 4.6,-3.8 6.8,-5.6 2.3,-1.9 3.9,-4.7 8.5,-5.6 12,-2.9 32.1,-5.5 42,-5.4 9.9,-0.1 30,2.5 42,5.4 4.6,0.9 6.2,3.7 8.5,5.6 2.2,1.8 5.7,0.9 6.8,5.6 5.6,4.8 11.5,10.5 19,19.9 1.6,2.5 0.9,-0.3 1.4,4.7 1.2,10.9 1.6,21.4 1.9,33 0.1,5.1 0.2,8.9 0.3,14.1 0.4,20.7 0.5,43.2 4,61.8 2.1,11.5 4.4,23.3 9.8,34.1 2.5,3.8 11.6,8.6 14,15.4 l 6.1,6.9 c 5.7,7.5 11,15.1 14.5,25.4 -7.7,-11.6 -62.2,-21.5 -128.2,-21.5 h -0.1 z"/>
  <g>
    <path d="m 319.8,155.8 c 3.3,0.3 9.5,4.8 9.7,1.6 1.9,-5.9 6,-9.8 -4,-10.6 l -25.5,4.7 -25.5,-4.7 c -10,0.8 -5.9,4.7 -4,10.6 0.2,3.2 6.4,-1.3 9.7,-1.6 l 19.8,4.8 z"/>
    <path d="m 280.1,150.6 c -3,-0.3 -1.7,2.2 -0.3,2.9 1.9,1.7 2.5,4.1 2.7,6.1 0,1.5 0.7,4.9 0.9,6.3 -2.1,1.5 -4.6,1.2 -3,2.5 -0.5,0.6 -4,1.3 -6.3,0.6 -1.5,1.3 -2.7,0.6 -4,0.3 0,-5.9 -2.1,-10.4 -6.2,-15.2 -1.9,-5.9 0.5,-11.7 10.5,-12.5 l 25.6,4.8 25.6,-4.8 c 10,0.8 12.4,6.6 10.5,12.5 -4.1,4.8 -6.2,9.3 -6.2,15.2 -1.3,0.3 -2.5,1 -4,-0.3 -2.3,0.7 -5.8,0 -6.3,-0.6 1.6,-1.3 -0.9,-1 -3,-2.5 0.2,-1.4 0.9,-4.8 0.9,-6.3 0.2,-2 0.8,-4.4 2.7,-6.1 1.4,-0.7 2.7,-3.2 -0.3,-2.9 l -19.9,4.8 z"/>
    <path d="m 303.2,129.5 c -0.3,1.7 2.1,1.7 3.4,1.4 1.5,-0.1 1.4,1.8 2.8,1.7 0.8,-0.1 0.7,0.2 0.9,0.6 -0.1,10.4 0.1,19.7 0,30.1 -1.8,3.8 -6.9,4.7 -10.3,5.4 -3.4,-0.7 -8.5,-1.6 -10.3,-5.4 -0.1,-10.4 0.1,-19.7 0,-30.1 0.2,-0.4 0.1,-0.7 0.9,-0.6 1.4,0.1 1.3,-1.8 2.8,-1.7 1.3,0.3 3.7,0.3 3.4,-1.4 0.3,-1.4 1.7,-2.4 3.2,-2.2 1.5,-0.2 2.9,0.8 3.2,2.2 z"/>
    <path d="m 303,129.2 v 36.5 c 0,1.1 -1.4,1.9 -3,1.9 -1.6,0 -3,-0.8 -3,-1.9 v -36.5 c 0,-1 1.4,-1.9 3,-1.9 1.6,0 3,0.9 3,1.9 z"/>
  </g>
  <path d="m 377.7,207.4 c 1.5,-1.4 2.1,-2.9 2.1,-4.4 0,-10.4 -35.7,-18.9 -79.8,-18.9 -44.1,0 -79.8,8.5 -79.8,18.9 0,1.5 0.6,3 2.1,4.4 3,-9.7 36.4,-17.1 77.7,-17.1 41.3,0 74.7,7.4 77.7,17.1 z m 4.9,41.7 c 0,2.5 -1.2,4 -2.7,5.4 -3.1,-9.7 -36.9,-17.8 -79.9,-17.8 -43,0 -76.8,8.1 -79.9,17.8 -1.5,-1.4 -2.7,-2.9 -2.7,-5.4 0,-10.4 36.7,-18.5 82.6,-18.5 45.9,0 82.6,8.1 82.6,18.5 z m -3,-8.7 c 1.6,-1.5 2.6,-3.9 2.6,-5.5 0,-10.3 -36.4,-18.7 -82.2,-18.7 -45.8,0 -82.2,8.4 -82.2,18.7 0,1.6 1,4 2.6,5.5 3.1,-9.8 36.7,-17.7 79.6,-17.7 42.9,0 76.5,7.9 79.6,17.7 z m 49.1,164.8 c 1.4,-1.5 2.1,-3 2.1,-4.6 0,-14.4 -59.4,-26.1 -130.8,-26.1 -71.4,0 -130.8,11.7 -130.8,26.1 0,1.6 0.7,3.1 2.1,4.6 9,-12.5 63.6,-22.2 128.7,-22.2 65.1,0 119.7,9.7 128.7,22.2 z m -237.4,-43.2 c 0,1.4 0.2,2.5 1,3.8 10.7,-13.3 53.1,-21.9 107.7,-21.9 54.6,0 97,8.6 107.7,21.9 0.8,-1.3 1,-2.4 1,-3.8 0,-14.3 -48.6,-26 -108.7,-26 -60.1,0 -108.7,11.7 -108.7,26 z m 51.4,-179.2 c -0.8,-1 -1,-1.1 -1,-2.2 0,-8.7 26.8,-15.6 58.3,-15.6 31.5,0 58.3,6.9 58.3,15.6 0,1.1 -0.2,1.2 -1,2.2 -9.1,-8.6 -28.7,-12.6 -57.3,-12.6 -28.6,0 -48.2,4 -57.3,12.6 z"/>
</g>
<use xlink:href="#bell" transform="translate(-160,-275)"/>
<use xlink:href="#bell" transform="translate(160,-275)"/>
<use id="shine" xlink:href="#shield" fill="url(#rg)" stroke="#000" stroke-width="3" />
</svg>