<?xml version="1.0" encoding="UTF-8"?>
<svg xmlns="http://www.w3.org/2000/svg" xmlns:xlink="http://www.w3.org/1999/xlink" width="600" height="600">
  <defs>
    <radialGradient id="rg" gradientUnits="userSpaceOnUse" cx="220" cy="220" r="405">
      <stop style="stop-color:#fff;stop-opacity:.3" offset="0"/>
      <stop style="stop-color:#fff;stop-opacity:.2" offset=".2"/>
      <stop style="stop-color:#666;stop-opacity:.1" offset=".6"/>
      <stop style="stop-color:#000;stop-opacity:.13" offset="1"/>
    </radialGradient>
    <path id="shield" d="m 1.5,1.5 h 597 v 597 h -597 z" />
  </defs>
  <use id="field" xlink:href="#shield" style="fill:#ffffff" />
  <g id="tower" style="fill:#aa4400;stroke:#2b1100;stroke-width:1;stroke-linejoin:round;stroke-linecap:round;">
    <g id="left">
      <path d="m 42.5,90 h 257.5 m -255,-30 -2.5,30 h 32.18 l 2.19,-30 z m 31.87,0 -2.19,30 h 4.69 z m 157.53,30 -0.5,30 h 66.1 v -30 z m 0,0 h -63.2 l -1.2,30 h 63.9 z m -1.1,60 -0.5,30 h 67.2 v -30 z m 0,0 h -64.5 l -1.3,30 h 65.3 z m -1.1,60 -0.5,30 h 68.3 v -30 z m 0,0 h -66 l -1.2,30 h 66.7 z m -1.1,60 -0.5,30 h 69.4 v -30 z m 0,0 h -67.3 l -1.3,30 h 68.1 z m -1.1,60 -0.6,30 h 70.6 v -30 z m 0,0 h -68.8 l -1.2,30 h 69.4 z m -1.1,60 -0.6,30 h 71.7 v -30 z m 0,0 h -70.1 l -1.3,30 h 70.8 z m -1.1,60 -0.6,30 h 72.8 v -30 z m 0,0 h -71.6 l -1.2,30 h 72.2 z m -1.1,60 -0.6,30 h 73.9 v -30 z m 0,0 h -72.9 l -1.3,30 h 73.6 z m -1.1,60 -0.6,30 h 37.5 37.5 v -30 z m 0,0 h -74.4 l -1.2,30 h 37.5 37.5 z m -54.4,-480 h -64.4 l -1.8,30 h 65 z m -2.4,60 h -65.7 l -1.9,30 h 66.3 z m -2.6,60 h -66.86 l -1.87,30 h 67.53 z m -2.4,60 h -68.21 l -1.87,30 h 68.78 z m -2.6,60 h -69.35 l -1.87,30 h 70.02 z m -2.4,60 h -70.69 l -1.88,30 h 71.27 z m -2.6,60 h -71.84 l -1.87,30 h 72.51 z m -2.4,60 h -73.18 l -1.88,30 h 73.76 z m -2.6,60 h -74.33 l -1.87,30 h 37.5 37.5 z m -44.4,-480 h -64.3 l -2.5,30 h 65 z m -3.7,60 h -65.6 l -2.5,30 h 66.2 z m -3.76,60 h -66.84 l -2.5,30 h 67.47 z m -3.75,60 h -68.09 l -2.5,30 h 68.72 z m -3.74,60 h -69.35 l -2.5,30 h 69.98 z m -3.74,60 h -70.61 l -2.5,30 h 71.23 z m -3.75,60 h -71.86 l -2.5,30 h 72.49 z m -3.74,60 h -73.12 l -2.5,30 h 73.74 z m -3.75,60 h -74.37 l -2.5,30 h 37.5 37.5 z m -4.38,-450 -2.18,30 h 65.59 l 1.6,-30 z m 0,0 h -32.49 l -2.5,30 h 32.81 z m -4.37,60 -2.19,30 h 66.87 l 1.6,-30 z m 0,0 h -33.12 l -2.5,30 h 33.43 z m -4.37,60 -2.19,30 h 68.14 l 1.5,-30 z m 0,0 h -33.75 l -2.5,30 h 34.06 z m -4.38,60 -2.19,30 h 69.42 l 1.5,-30 z m 0,0 h -34.37 l -2.5,30 h 34.68 z m -4.37,60 -2.19,30 h 70.59 l 1.6,-30 z m 0,0 h -35 l -2.5,30 h 35.31 z m -4.38,60 -2.18,30 h 71.86 l 1.6,-30 z m 0,0 h -35.62 l -2.5,30 h 35.94 z m -4.37,60 -2.19,30 h 73.14 l 1.5,-30 z m 0,0 h -36.25 l -2.5,30 h 36.56 z m -4.37,60 -2.19,30 h 74.41 l 1.5,-30 z m 0,0 h -36.88 l -2.5,30 h 37.19 z m 73.72,0 -1.5,30 h 74.3 l 1,-30 z m 73.8,0 -1,30 h 74.4 l 0.3,-30 z m 74,-30 0.3,-30 h -72.4 l -1,30 z m 0.7,-60 0.3,-30 h -71.3 l -0.9,30 z m 0.6,-60 0.3,-30 h -70 l -0.9,30 z m 0.6,-60 0.3,-30 h -68.7 l -1,30 z m 0.6,-60 0.3,-30 h -67.4 l -1,30 z m 0.6,-60 0.4,-30 h -66.3 l -0.9,30 z m 0.7,-60 0.3,-30 h -65 l -0.9,30 z m -65.6,0 0.9,-30 h -65 l -1.6,30 z m -67.2,30 -1.6,30 h 66.9 l 0.9,-30 z m 64.4,60 h -67.6 l -1.5,30 h 68.1 z m -1.9,60 h -68.8 l -1.5,30 h 69.3 z m -1.9,60 h -70 l -1.6,30 h 70.7 z m -1.9,60 h -71.2 l -1.6,30 h 71.9 z m -1.8,60 h -72.6 l -1.5,30 h 73.1 z m -50.7,-420 -1.6,30 h 64.5 l 0.9,-30 h -31.9 z m 63.8,0 -0.9,30 h 3.4 z m -63.8,0 -2.5,30 h 0.9 z"/>
      <path style="fill:none;stroke-width:10;" d="m 103.1,150 -5.63,90 m 135.83,-90 -1.6,90"/>
      <path style="fill:#2b1100;stroke:none;" d="m 242.7,240 a 11,11 0 0 1 -11,11 11,11 0 0 1 -11,-11 11,11 0 0 1 11,-11 11,11 0 0 1 11,11 z m 1.6,-90 a 11,11 0 0 1 -11,11 11,11 0 0 1 -11,-11 11,11 0 0 1 11,-11 11,11 0 0 1 11,11 z m -135.8,90 a 11,11 0 0 1 -11.03,11 11,11 0 0 1 -11,-11 11,11 0 0 1 11,-11 11,11 0 0 1 11.03,11 z m 5.6,-90 a 11,11 0 0 1 -11,11 11,11 0 0 1 -11,-11 11,11 0 0 1 11,-11 11,11 0 0 1 11,11 z"/>
    </g>
    <use id="right" xlink:href="#left" transform="matrix(-1,0,0,1,600,0)"/>
    <path id="middle" d="m 331.9,60 2.5,30 h -2.2 z m -68.8,480 -0.3,30 c 24.8,0 49.6,0 74.4,0 l -0.3,-30 c -24.6,0 -49.2,0 -73.8,0 z m 0.6,-60 -0.3,30 c 24.4,0 48.8,0 73.2,0 l -0.3,-30 c -24.2,0 -48.4,0 -72.6,0 z m 0.7,-60 -0.3,30 c 23.9,0 47.9,0 71.8,0 l -0.3,-30 c -23.7,0 -47.5,0 -71.2,0 z m 0.6,-60 -0.3,30 c 23.5,0 47.1,0 70.6,0 l -0.3,-30 c -23.3,0 -46.7,0 -70,0 z m 0.6,-60 -0.3,30 c 23.1,0 46.3,0 69.4,0 l -0.3,-30 c -22.9,0 -45.9,0 -68.8,0 z m 0.6,-60 -0.3,30 c 22.7,0 45.5,0 68.2,0 l -0.3,-30 c -22.5,0 -45.1,0 -67.6,0 z m 0.7,-60 -0.4,30 c 22.3,0 44.7,0 67,0 l -0.4,-30 c -22.1,0 -44.1,0 -66.2,0 z m 0.6,-60 -0.3,30 c 21.9,0 43.7,0 65.6,0 l -0.3,-30 c -21.7,0 -43.3,0 -65,0 z m 0.6,-60 -0.3,30 h 64.4 l -0.3,-30 z m 0,0 -2.5,30 h 2.2 z"/>
  </g>
  <use id="shine" xlink:href="#shield" fill="url(#rg)" stroke="#000" stroke-width="3" />
</svg>
