<?xml version="1.0" encoding="UTF-8" standalone="no"?>
<svg xmlns="http://www.w3.org/2000/svg" xmlns:xlink="http://www.w3.org/1999/xlink" width="600" height="660">
  <defs>
    <clipPath
       clipPathUnits="userSpaceOnUse"
       id="clip-pommel">
      <path
         d="m 279.9,392.3 c 13.1,54.1 29.8,54.1 42.8,0 13,-54.1 16.7,-120.6 3.7,-174.7 -14.9,-53.9 -37.2,-53.9 -52,0 -13,54.1 -7.5,120.6 5.5,174.7 z"
         id="pommel"/>
    </clipPath>
  </defs>
  <path style="fill:#ffffff;stroke:#000000;stroke-width:3;stroke-miterlimit:20;" d="m 1.5,1.5 v 656 l 298.5,-157.5 298.5,157.5 v -656 z"/>
  <use xlink:href="#pommel" style="fill:#884411;stroke:#000000;stroke-width:1;"/>
  <path clip-path="url(#clip-pommel)" style="fill:none;stroke:#000000;stroke-width:3" d="m 265.2,402.7 79.7,-46 m -80.6,20.4 79.7,-46 m -80.7,20.7 79.7,-46 m -86.2,-53.9 79.6,-46 m -77.6,71 79.6,-46 m -77.8,70.9 79.6,-46 m -78.7,71.1 79.6,-46"/>
  <path style="fill:#cccccc;stroke:#000000;stroke-width:1" d="m 287.4,35.72 -20.5,11.33 -6.6,-4.46 -2.6,160.31 h 85.4 l -2.8,-165.14 -8.3,-1.49 -7.5,12.82 -7.4,-8.73 -26,13.38 z" />
  <path style="stroke-width:1" d="m 306,46.12 -9,4.65 -0.3,144.93 h 11.1 z" />
  <path style="stroke-width:1" d="m 285.5,418.9 c 0,-1.2 0,-2.5 0,-3.8 l 40.9,-23.6 c -1.9,1.7 -1.9,3.6 -1.9,5.2 z"/>
  <rect style="fill:#aaaaaa;stroke:#000000;stroke-width:1;" y="190.5" x="194.5" height="27.87" width="210.1"/>
  <path style="fill:#aaaaaa;stroke:#000000;stroke-width:1;" d="m 337.5,412.2 a 37.38,37.38 0 1 0 -74.3,0 37.38,37.38 0 1 0 74.3,0 z"/>
  <path style="fill:#aaaaaa;stroke:#000000;stroke-width:1;" d="m 317.1,412.2 a 15.8,15.8 0 1 0 -31.6,0 15.8,15.8 0 1 0 31.6,0 z"/>
</svg>
