<?xml version="1.0" encoding="UTF-8" standalone="no"?>
<svg width="600" height="600" version="1.1" id="svg129" xmlns:xlink="http://www.w3.org/1999/xlink" xmlns="http://www.w3.org/2000/svg" xmlns:svg="http://www.w3.org/2000/svg">
  <defs>
    <radialGradient id="rg" gradientUnits="userSpaceOnUse" cx="220" cy="220" r="405">
      <stop style="stop-color:#fff;stop-opacity:.3" offset="0"/>
      <stop style="stop-color:#fff;stop-opacity:.2" offset=".2"/>
      <stop style="stop-color:#666;stop-opacity:.1" offset=".6"/>
      <stop style="stop-color:#000;stop-opacity:.13" offset="1"/>
    </radialGradient>
    <clipPath id="shield-clip">
      <path id="shield" d="m 1.5,1.5 h 597 v 597 h -597 z" />
    </clipPath>
  </defs>
  <use id="field" xlink:href="#shield" style="fill:#ffffff" />
  <g style="fill:#ed72ed;stroke:#201123;stroke-width:1.5;stroke-linecap:round;stroke-linejoin:round;">
    <path d="m 87.57,248.3 c 0.77,-20.4 -0.11,-41.4 2.86,-61 0.55,-3.8 1.32,-7.5 4.07,-10.5 1.76,-2 4.84,-8.8 -2.09,-10.7 -4.84,-1.3 -10.34,2.9 -9.02,6.7 1.43,4.8 -3.46,47.7 -8.28,71.4"/>
    <path d="m 58.89,237.6 c -4.79,-4.3 -9.32,-9.1 -14.81,-11.9 -3.27,-2.8 -8.65,1.4 -5.28,5 6.62,5.6 10.65,11.2 15.56,16.6"/>
    <path d="m 72.22,233.4 c -9.31,1 -19.88,-1.7 -25.9,10.8 0.31,5.6 -4.51,11 -10.09,16.3 2.96,7.4 3.35,15.5 9.98,21.8 0.72,8.8 11.29,16.3 23.24,24.5 15.92,14.2 16.03,33.5 37.45,43.4 17.7,15.7 30.4,35.8 52.9,60.4 36.5,27.5 76.7,13.1 113.6,15.9 17.6,-9 35.3,0.3 52.9,1.3 5.8,6.4 14.2,8.2 27.2,2.7 14.6,-6.3 27.4,-2.6 41,-1.5 14.7,8.3 22.7,5.8 29,-1.3 7.9,-4.3 14.2,-3.3 21.2,0.7 6.8,4.5 10.6,9.3 18.7,-1.2 1.3,-4.9 8.1,-2.8 16.7,-1.8 l 89.8,-1.1 c 5.8,-0.2 6.7,-10.2 -1.6,-10.3 -35.3,-2.1 -65,-12.4 -86,-15.7 l -100.8,-9 -125.5,-57.8 c -14.4,4.7 -28.2,8.7 -42.6,11.5 -35.3,-15.9 -66.4,-36.6 -99.4,-76.6 -12.1,-13.2 -23.79,-26.8 -41.78,-33 z"/>
    <path style="fill:#860086;" d="m 264.6,319.1 c -19.1,5.1 -19.1,19.3 -15.6,34.9 5.5,17.2 12.9,12.6 19.5,15.7 20.3,-1.3 37.6,9.8 54.3,18.5 6.6,3.5 15,3.2 21.8,6.5 -3.2,-10.1 -3.8,-18.4 12.9,-14.3 16.2,5.5 0.4,10.9 -0.4,16.5 42.9,5.6 71.1,2.4 108.6,0 47.1,-3.1 88.5,-77.5 48.3,-144 -29.6,-48.9 -113.2,-78.3 -172.6,-31.7 -32,25.3 -45.2,72.1 -76.8,97.9 z"/>
    <path style="fill:#860086;" d="m 450.1,398.2 c -22.8,0.3 -63.3,-12.9 -67.6,-45.6 -5.3,-40.9 28.6,-65.1 50.9,-66.6 51.3,-3.2 65.2,33.1 60.1,60.4 -6,31.8 -48.9,47.5 -64.9,21.4 -10.2,-16.9 2.2,-33.8 17.5,-33.5 14.7,0.2 22.2,10.5 19.6,18.8 -2.2,7.4 -16.6,11.5 -21,4.5 -2.9,-4.5 1.8,-12.1 9.8,-8.5"/>
    <path style="fill:none;" d="m 433,373.9 -3.6,2.4 m -4,-8.8 -7.5,3.1 m 4.1,-11.2 c -5.8,1.5 -9.8,2.6 -14.4,2.8 m 21.8,-78.7 2.7,-19.1 m 24.6,70.9 c -0.2,-14.6 9.5,-19.4 16,-23.6 m -25.7,21.3 c 0,-10.6 -1.9,-20.8 3.4,-32.1 m -10.1,32.4 c -4.1,-10.8 -7.8,-21.6 -6.4,-32.4 m 0.3,34.4 c -4.5,-9.7 -9.8,-17.2 -12.6,-30.6 m 8.7,32.8 c -7.1,-7.7 -14.9,-14.8 -18.2,-25.8 m 14.6,29.4 c -8.2,-5.3 -14.6,-11.4 -22.7,-21.7 m 20.5,26.9 c -9.9,-4.1 -19.8,-8.9 -29.8,-19.4 m 28,24.9 c -15.3,-3 -20.4,-5.4 -30.6,-12.4 m -66.8,20 c -21.2,-12.6 -45.8,-22.8 -61.2,-39.8 m 132.8,59.2 c -22.2,-2.8 -46.2,-3.2 -61.6,-14.2 m 30.6,-143.9 -9,-6 m 152,152.8 -6,-1.2 m -7.7,-1.7 -7.6,-3.1 m 12.4,-14.3 -7.3,-0.6 m 27.7,-0.5 -6.8,1.4 m -18.7,-18.5 11.8,-2.9 m 10.6,-4.3 c 5.1,-1.3 9.8,-2.7 12.4,-5.4 m -18.1,-28.4 c 4.5,-1.6 8.9,-4.5 13.3,-10.2 m -29.4,-17.1 c 2.4,-4.4 4.8,-5.9 7.4,-16.4 m -18.7,57.1 12.6,-3.4 m -28.1,-10.5 c 6.1,-3.1 11.5,-8 16.9,-13.5 m -34.8,9.4 c 10.6,-12.8 17.2,-25.4 22.9,-38.2 m -63.1,40.3 -0.3,-17.1 m -14.3,24.4 -6.9,-16.6 m -6.1,29.2 c -11.9,-9.5 -18.1,-17.6 -42.6,-30 m 34.5,58.6 c -23.4,-6.1 -41.1,-14.8 -58.1,-24 m -13.4,-6.7 -12.7,-8 m 151.3,-48.7 c 5.9,-11.5 12.5,-22.8 14.5,-35.2 m -31.4,34.6 c -0.8,-14.2 -1.3,-28.1 -10.5,-43.8 m -7,48 c -6.4,-15.2 -16.8,-28 -33,-37.4 m 4.3,41.9 c -13.9,-10.5 -25.5,-21.9 -48.1,-20.7"/>
    <path d="m 74.49,262.6 c -5.04,-26.5 -13.84,-77.5 -13.21,-80.2 2.89,-4.2 3.65,-5.2 2.77,-8.4 -2.15,-6.9 -13.84,-7.1 -15.6,1.1 -1.27,6.2 4.77,9.8 5.03,16.5 2.01,21.6 7.17,47 9.69,69.7"/>
    <path d="m 53.35,262.5 c -7.28,-3.6 -14.77,-6.6 -22.77,-7.9 -4.51,-1.7 -7.75,5.2 -1.59,7.4 9.18,2.9 18.32,6.9 27.5,10.8"/>
  </g>
  <use id="shine" style="fill:url(#rg);stroke:#000000;stroke-width:3;" xlink:href="#shield" />
</svg>
